HIERARCHY
ROOT Hips
{
	OFFSET 0.000000 0.000000 0.000000
	CHANNELS 6 Xposition Yposition Zposition Zrotation Yrotation Xrotation 
	JOINT LeftUpLeg_virtual
	{
		OFFSET 0.000000 0.000000 0.000000
		CHANNELS 3 Zrotation Yrotation Xrotation
		JOINT LeftUpLeg
		{
			OFFSET 10.205400 -3.823500 0.155100
			CHANNELS 3 Zrotation Yrotation Xrotation
			JOINT LeftLeg
			{
				OFFSET 0.708757 -12.982077 0.567790
				CHANNELS 3 Zrotation Yrotation Xrotation
				JOINT LeftFoot
				{
					OFFSET -0.708756 -10.717838 -2.184338
					CHANNELS 3 Zrotation Yrotation Xrotation
					JOINT LeftToeBase
					{
						OFFSET 0.108149 -7.191104 7.560241
						CHANNELS 3 Zrotation Yrotation Xrotation
						End Site
						{
							OFFSET 0.000000 0.000000 0.000000
						}
					}
				}
			}
		}
	}
	JOINT RightUpLeg_virtual
	{
		OFFSET 0.000000 0.000000 0.000000
		CHANNELS 3 Zrotation Yrotation Xrotation
		JOINT RightUpLeg
		{
			OFFSET -10.205400 -3.823500 0.005500
			CHANNELS 3 Zrotation Yrotation Xrotation
			JOINT RightLeg
			{
				OFFSET -0.708756 -12.982134 0.610632
				CHANNELS 3 Zrotation Yrotation Xrotation
				JOINT RightFoot
				{
					OFFSET 0.708754 -10.717769 -1.945823
					CHANNELS 3 Zrotation Yrotation Xrotation
					JOINT RightToeBase
					{
						OFFSET -0.108140 -7.191069 7.372968
						CHANNELS 3 Zrotation Yrotation Xrotation
						End Site
						{
							OFFSET 0.000000 0.000000 0.000000
						}
					}
				}
			}
		}
	}
	JOINT Spine_virtual
	{
		OFFSET 0.000000 0.000000 0.000000
		CHANNELS 3 Zrotation Yrotation Xrotation
		JOINT Spine
		{
			OFFSET 0.000000 6.876099 0.125700
			CHANNELS 3 Zrotation Yrotation Xrotation
			JOINT Spine1
			{
				OFFSET 0.000000 8.022060 0.146608
				CHANNELS 3 Zrotation Yrotation Xrotation
				JOINT Spine2
				{
					OFFSET 0.000000 9.168068 0.167552
					CHANNELS 3 Zrotation Yrotation Xrotation
					JOINT Neck_virtual
					{
						OFFSET 0.000000 0.000000 0.000000
						CHANNELS 3 Zrotation Yrotation Xrotation
						JOINT Neck
						{
							OFFSET 0.000000 10.314075 0.188496
							CHANNELS 3 Zrotation Yrotation Xrotation
							JOINT Head
							{
								OFFSET 0.000000 7.643700 -2.377400
								CHANNELS 3 Zrotation Yrotation Xrotation
								End Site
								{
									OFFSET 0.000000 0.000000 0.000000
								}
							}
						}
					}
					JOINT LeftShoulder_virtual
					{
						OFFSET 0.000000 0.000000 0.000000
						CHANNELS 3 Zrotation Yrotation Xrotation
						JOINT LeftShoulder
						{
							OFFSET 4.392200 8.824978 0.174984
							CHANNELS 3 Zrotation Yrotation Xrotation
							JOINT LeftArm
							{
								OFFSET 8.771219 -2.981674 -0.026999
								CHANNELS 3 Zrotation Yrotation Xrotation
								JOINT LeftForeArm
								{
									OFFSET 8.512804 0.000000 -0.000000
									CHANNELS 3 Zrotation Yrotation Xrotation
									JOINT LeftHand
									{
										OFFSET 18.484802 0.000000 -0.000000
										CHANNELS 3 Zrotation Yrotation Xrotation
										End Site
										{
											OFFSET 0.000000 0.000000 0.000000
										}
									}
								}
							}
						}
					}
					JOINT RightShoulder_virtual
					{
						OFFSET 0.000000 0.000000 0.000000
						CHANNELS 3 Zrotation Yrotation Xrotation
						JOINT RightShoulder
						{
							OFFSET -4.392200 8.824993 0.141379
							CHANNELS 3 Zrotation Yrotation Xrotation
							JOINT RightArm
							{
								OFFSET -8.771282 -2.981682 -0.094208
								CHANNELS 3 Zrotation Yrotation Xrotation
								JOINT RightForeArm
								{
									OFFSET -8.494598 0.000000 0.000000
									CHANNELS 3 Zrotation Yrotation Xrotation
									JOINT RightHand
									{
										OFFSET -18.483803 0.000000 0.000001
										CHANNELS 3 Zrotation Yrotation Xrotation
										End Site
										{
											OFFSET 0.000000 0.000000 0.000000
										}
									}
								}
							}
						}
					}
				}
			}
		}
	}
}
MOTION
Frames: 4
Frame Time: 0.033333
8.761015 34.933937 -9.308944 -179.770265 35.625751 -178.980258 -1.290724 -2.249301 9.852032 -13.828574 3.511075 -24.421654 11.736913 16.178312 29.792049 -6.535288 -7.334802 -1.158390 0.000000 0.000000 0.000000 5.992805 0.798271 7.704313 -3.921458 -19.352719 -24.387342 -2.955011 3.228812 35.604591 11.599319 11.548696 40.029936 0.000000 0.000000 0.000000 1.190659 2.103671 -4.894434 -3.594448 -0.630615 -11.218364 -3.184564 -1.451970 4.547526 -0.037958 -0.044518 0.073748 -4.198204 1.633098 9.604586 1.777054 5.480222 13.595554 0.000000 0.000000 0.000000 -2.029082 1.852829 6.654848 -2.410990 3.531419 -1.054816 -32.558887 21.898080 63.729941 169.264587 -80.400438 -144.392385 0.000000 0.000000 0.000000 -6.752467 3.236663 5.892299 18.391333 -8.080495 0.931235 57.958117 -24.485468 6.594583 -3.593582 25.699400 -5.924731 0.000000 0.000000 0.000000 
8.781540 34.930706 -9.290530 -179.631421 33.996976 -178.887039 -1.163713 -2.454098 9.976761 -13.866157 3.172273 -24.734606 11.433478 15.364222 29.662873 -6.392342 -7.446664 -0.986262 0.000000 0.000000 0.000000 5.907223 0.616047 7.458415 -3.351204 -19.525701 -25.754920 -2.695772 2.665985 37.446591 10.875312 10.847696 38.657201 0.000000 0.000000 0.000000 1.280747 1.990252 -4.750957 -3.732131 -0.441194 -11.119055 -3.278152 -1.365927 4.444749 -0.023832 -0.052549 0.097037 -4.377749 1.801505 9.603815 1.175320 5.711334 13.811404 0.000000 0.000000 0.000000 -2.261968 1.992883 6.714414 -2.358286 3.436768 -1.085167 -32.898135 22.029196 63.531175 168.315150 -80.364197 -143.516673 0.000000 0.000000 0.000000 -6.920354 3.334797 5.892898 18.473693 -7.929045 0.966924 58.031937 -24.239781 7.072160 -3.543391 25.753565 -5.881020 0.000000 0.000000 0.000000 
8.795546 34.916935 -9.194279 -179.659261 32.838491 -178.792646 -1.072714 -2.419791 10.019990 -13.912657 2.668152 -25.145855 11.174123 14.686391 29.389119 -6.412253 -7.488444 -0.759296 0.000000 0.000000 0.000000 5.496423 0.613713 7.088136 -3.055264 -19.653763 -27.132694 -2.211724 1.833033 39.973224 9.744806 10.316523 37.419430 0.000000 0.000000 0.000000 1.351712 1.998637 -4.653265 -3.908183 -0.177618 -10.974084 -3.451458 -1.189195 4.415577 -0.037043 0.038898 0.072137 -4.428377 1.805872 9.464885 0.882166 5.977802 13.823042 0.000000 0.000000 0.000000 -2.365333 2.169478 6.581208 -2.265478 3.327110 -1.047268 -33.080881 22.007628 63.432151 167.085770 -80.465291 -142.342044 0.000000 0.000000 0.000000 -7.065297 3.465172 5.840715 18.541633 -7.691019 0.990736 57.962181 -23.931023 7.576692 -3.545665 25.815127 -5.804526 0.000000 0.000000 0.000000 
8.813762 34.897514 -8.991190 -179.746072 31.421821 -178.871029 -1.029067 -2.484098 9.989443 -13.862142 1.969047 -25.482056 11.097268 14.064207 29.042767 -6.463207 -7.422535 -0.470240 0.000000 0.000000 0.000000 5.196743 0.479000 6.935562 -3.316941 -19.018645 -27.914503 -2.117283 1.458809 42.523743 9.104201 10.487610 36.318189 0.000000 0.000000 0.000000 1.302254 1.918648 -4.375059 -4.052604 0.011242 -10.739731 -3.556713 -1.061605 4.299956 -0.035928 0.078251 0.087533 -4.543207 1.828609 9.386395 0.515371 6.008597 13.899946 0.000000 0.000000 0.000000 -2.500490 2.254877 6.572939 -2.082749 3.064628 -1.010208 -33.038663 21.756982 63.556386 166.325994 -80.546447 -141.602594 0.000000 0.000000 0.000000 -7.164595 3.535817 5.838873 18.553517 -7.504996 1.046555 57.793864 -23.713940 8.054077 -3.583394 26.023540 -5.747820 0.000000 0.000000 0.000000 
